<svg width="80" height="27" viewBox="0 0 80 27" fill="none" xmlns="http://www.w3.org/2000/svg">
<path d="M23.4668 0.40625V26H17.2969V5.16992H11.5488L11.127 13.7656C10.9512 16.7305 10.541 19.0977 9.89648 20.8672C9.25195 22.6367 8.33203 23.9316 7.13672 24.752C5.95312 25.5605 4.33594 25.9766 2.28516 26H0.632812V21.2539L1.49414 21.166C2.72461 20.9902 3.61523 20.2402 4.16602 18.916C4.7168 17.5801 5.07422 15.3359 5.23828 12.1836L5.67773 0.40625H23.4668ZM26.2969 16.3145C26.2969 14.416 26.666 12.7285 27.4043 11.252C28.1426 9.76367 29.2031 8.62109 30.5859 7.82422C31.9688 7.02734 33.5918 6.62891 35.4551 6.62891C38.3027 6.62891 40.5469 7.51367 42.1875 9.2832C43.8281 11.041 44.6484 13.4375 44.6484 16.4727V16.6836C44.6484 19.6484 43.8223 22.0039 42.1699 23.75C40.5293 25.4844 38.3027 26.3516 35.4902 26.3516C32.7832 26.3516 30.6094 25.543 28.9688 23.9258C27.3281 22.2969 26.4434 20.0938 26.3145 17.3164L26.2969 16.3145ZM32.2207 16.6836C32.2207 18.4414 32.4961 19.7305 33.0469 20.5508C33.5977 21.3711 34.4121 21.7812 35.4902 21.7812C37.5996 21.7812 38.6777 20.1582 38.7246 16.9121V16.3145C38.7246 12.9043 37.6348 11.1992 35.4551 11.1992C33.4746 11.1992 32.4023 12.6699 32.2383 15.6113L32.2207 16.6836ZM60.5742 11.5508H53.0859V26H47.1445V6.98047H60.5742V11.5508ZM61.2422 16.3145C61.2422 14.416 61.6113 12.7285 62.3496 11.252C63.0879 9.76367 64.1484 8.62109 65.5312 7.82422C66.9141 7.02734 68.5371 6.62891 70.4004 6.62891C73.248 6.62891 75.4922 7.51367 77.1328 9.2832C78.7734 11.041 79.5938 13.4375 79.5938 16.4727V16.6836C79.5938 19.6484 78.7676 22.0039 77.1152 23.75C75.4746 25.4844 73.248 26.3516 70.4355 26.3516C67.7285 26.3516 65.5547 25.543 63.9141 23.9258C62.2734 22.2969 61.3887 20.0938 61.2598 17.3164L61.2422 16.3145ZM67.166 16.6836C67.166 18.4414 67.4414 19.7305 67.9922 20.5508C68.543 21.3711 69.3574 21.7812 70.4355 21.7812C72.5449 21.7812 73.623 20.1582 73.6699 16.9121V16.3145C73.6699 12.9043 72.5801 11.1992 70.4004 11.1992C68.4199 11.1992 67.3477 12.6699 67.1836 15.6113L67.166 16.6836Z" fill="#E5E5E5"/>
</svg>
