<svg width="32" height="32" viewBox="0 0 32 32" fill="none" xmlns="http://www.w3.org/2000/svg">
<path d="M14.9449 8.46381L14.9449 14.9449L8.46378 14.9449C7.86089 14.9449 7.40871 15.3971 7.40871 16C7.40871 16.6029 7.86089 17.0551 8.46378 17.0551L14.9449 17.0551L14.9449 23.5362C14.9449 24.1391 15.3971 24.5913 15.9246 24.5159L16.0753 24.5159C16.6782 24.5159 17.1304 24.0637 17.055 23.5362L17.055 17.0551L23.3854 17.0551C23.9883 17.0551 24.4405 16.6029 24.4405 16C24.4405 15.3971 23.9883 14.9449 23.3854 14.9449L17.055 14.9449L17.055 8.46381C17.055 7.86091 16.6029 7.40874 16.0753 7.4841L15.9246 7.4841C15.3217 7.4841 14.8695 7.93628 14.9449 8.46381Z" fill="#FFA800"/>
<circle cx="16" cy="16" r="15" stroke="#FFA800" stroke-width="2"/>
</svg>
