<svg width="287" height="16" viewBox="0 0 287 16" fill="none" xmlns="http://www.w3.org/2000/svg">
<path d="M151.387 11.7092V12.596H152.806V13.7851L153.4 13.1603H155.546V12.0115C155.546 12.0115 158.555 11.9914 162.024 11.9712V12.9789H160.338L159.782 12.3945H159.168C158.9 12.1728 158.536 12.0317 158.153 12.0317C157.252 12.0317 156.524 12.7975 156.524 13.7448C156.524 14.692 157.252 15.4578 158.153 15.4578C158.843 15.4578 159.437 14.9943 159.667 14.3494H165.167C165.397 14.9943 165.991 15.4578 166.681 15.4578C167.582 15.4578 168.31 14.692 168.31 13.7448C168.31 13.2006 168.061 12.6968 167.678 12.3945V12.2534H167.486C167.256 12.1123 166.969 12.0317 166.681 12.0317C166.394 12.0317 166.126 12.1123 165.876 12.2534H165.129L164.573 12.9991H163.232C163.232 12.9991 163.155 12.4751 163.117 11.9914C167.64 11.9712 172.546 11.9712 172.603 12.0317C172.718 12.1526 172.603 14.7726 172.603 14.7726H175.21V12.3743H175.708V13.5634H179.733V11.8503L181.994 12.7371V13.6238H183.547L184.045 13.0998H185.253V12.0922H187.572V12.8378H186.862V14.692H200.547V12.8378H199.837V12.1728H201.045V13.5029H203.441L203.862 13.0595L204.495 13.4223V14.3091H205.702V13.2006H204.859L204.226 12.5355V12.0115H206.967L207.504 11.4472H212.678V12.9588H210.992L210.436 12.3743H209.823C209.554 12.1526 209.19 12.0115 208.807 12.0115C207.906 12.0115 207.178 12.7774 207.178 13.7246C207.178 14.6718 207.906 15.4377 208.807 15.4377C209.497 15.4377 210.091 14.9741 210.321 14.3292H215.821C216.051 14.9741 216.645 15.4377 217.335 15.4377C218.236 15.4377 218.965 14.6718 218.965 13.7246C218.965 13.1805 218.715 12.6766 218.332 12.3743V12.2332H218.14C217.91 12.0922 217.623 12.0115 217.335 12.0115C217.048 12.0115 216.78 12.0922 216.531 12.2332H215.783L215.227 12.9789H213.886C213.886 12.9789 213.752 11.9712 213.752 11.4674H219.444L220.632 12.7169H222.491V13.8052H223.047V12.6161H223.909L224.177 12.8177H224.542V11.6488H224.177L223.909 11.9511H223.833C223.833 11.9511 223.909 10.9232 223.909 11.0643V3.48654H223.353V0.886713H215.323V0.0805664H213.272V0.886713H210.8V1.91455H209.957V0.967328H206.354V0.0805664H204.303V0.967328H199.588V1.85409H197.748V0.967328H197.538V0.0805664H195.487V0.967328H189.066V0.0805664H187.016V0.967328H180.385V0.0805664H178.334V0.967328H171.492V0.0805664H169.441V0.967328H162.599V0.0805664H160.548V0.967328H152.441V3.26485H152.173V11.0442H152.729V11.7092H151.387ZM220.479 4.3733H222.165V6.81189H220.479V4.3733ZM220.479 3.60746H222.165V3.97023H220.479V3.60746ZM215.4 5.38098H217.776V7.85988H215.4V5.38098ZM210.129 5.38098H212.506V7.85988H210.129V5.38098ZM204.092 5.44144H207.504V7.63819H204.092V5.44144ZM199.991 5.44144H203.402V7.63819H199.991V5.44144ZM195.698 5.44144H199.109V7.63819H195.698V5.44144ZM191.596 5.44144H195.008V7.63819H191.596V5.44144ZM187.361 5.44144H190.772V7.63819H187.361V5.44144ZM183.259 5.44144H186.671V7.63819H183.259V5.44144ZM178.966 5.44144H182.378V7.63819H178.966V5.44144ZM174.865 5.44144H178.276V7.63819H174.865V5.44144ZM170.553 5.44144H173.964V7.63819H170.553V5.44144ZM166.451 5.44144H169.863V7.63819H166.451V5.44144ZM165.551 7.63819H162.139V5.44144H165.551V7.63819ZM158.057 5.44144H161.468V7.63819H158.057V5.44144ZM154.013 4.3733H155.7V6.81189H154.013V4.3733ZM154.013 3.60746H155.7V3.97023H154.013V3.60746Z" fill="#FCDC9D"/>
<path d="M76.5658 11.7092V12.596H77.984V13.7851L78.5782 13.1603H80.7247V12.0115C80.7247 12.0115 83.7337 11.9914 87.2026 11.9712V12.9789H85.516L84.9602 12.3945H84.3278C84.0595 12.1728 83.6953 12.0317 83.312 12.0317C82.4112 12.0317 81.683 12.7975 81.683 13.7448C81.683 14.692 82.4112 15.4578 83.312 15.4578C84.002 15.4578 84.5961 14.9943 84.8261 14.3494H90.3265C90.5565 14.9943 91.1507 15.4578 91.8406 15.4578C92.7414 15.4578 93.4697 14.692 93.4697 13.7448C93.4697 13.2006 93.2205 12.6968 92.8372 12.3945V12.2534H92.6456C92.4156 12.1123 92.1281 12.0317 91.8406 12.0317C91.5531 12.0317 91.2848 12.1123 91.0357 12.2534H90.2882L89.7324 12.9991H88.3908C88.3908 12.9991 88.3142 12.4751 88.2759 11.9914C92.7989 11.9712 97.7052 11.9712 97.7627 12.0317C97.8777 12.1526 97.7627 14.7726 97.7627 14.7726H100.369V12.3743H100.868V13.5634H104.892V11.8503L107.154 12.7371V13.6238H108.706L109.204 13.0998H110.412V12.0922H112.731V12.8378H112.022V14.692H125.706V12.8378H124.997V12.1728H126.204V13.5029H128.6L129.021 13.0595L129.654 13.4223V14.3091H130.861V13.2006H130.018L129.386 12.5355V12.0115H132.126L132.663 11.4472H137.838V12.9588H136.151L135.595 12.3743H134.982C134.714 12.1526 134.349 12.0115 133.966 12.0115C133.065 12.0115 132.337 12.7774 132.337 13.7246C132.337 14.6718 133.065 15.4377 133.966 15.4377C134.656 15.4377 135.25 14.9741 135.48 14.3292H140.981C141.211 14.9741 141.805 15.4377 142.495 15.4377C143.396 15.4377 144.124 14.6718 144.124 13.7246C144.124 13.1805 143.875 12.6766 143.491 12.3743V12.2332H143.3C143.07 12.0922 142.782 12.0115 142.495 12.0115C142.207 12.0115 141.939 12.0922 141.69 12.2332H140.942L140.387 12.9789H139.045C139.045 12.9789 138.911 11.9712 138.911 11.4674H144.603L145.791 12.7169H147.65V13.8052H148.206V12.6161H149.068L149.337 12.8177H149.701V11.6488H149.298L149.03 11.9511H148.953C148.953 11.9511 149.03 10.9232 149.03 11.0643V3.48654H148.474V0.886713H140.444V0.0805664H138.374V0.886713H135.902V1.91455H135.059V0.967328H131.475V0.0805664H129.424V0.967328H124.709V1.85409H122.869V0.967328H122.659V0.0805664H120.608V0.967328H114.187V0.0805664H112.137V0.967328H105.506V0.0805664H103.493V0.967328H96.6511V0.0805664H94.6004V0.967328H87.7776V0.0805664H85.7269V0.967328H77.6199V3.26485H77.3324V11.0442H77.8882V11.7092H76.5658ZM145.638 4.3733H147.324V6.81189H145.638V4.3733ZM145.638 3.60746H147.324V3.97023H145.638V3.60746ZM140.578 5.38098H142.955V7.85988H140.578V5.38098ZM135.289 5.38098H137.665V7.85988H135.289V5.38098ZM129.251 5.44144H132.663V7.63819H129.251V5.44144ZM125.169 5.44144H128.581V7.63819H125.169V5.44144ZM120.857 5.44144H124.268V7.63819H120.857V5.44144ZM116.756 5.44144H120.167V7.63819H116.756V5.44144ZM112.52 5.44144H115.932V7.63819H112.52V5.44144ZM108.438 5.44144H111.849V7.63819H108.438V5.44144ZM104.126 5.44144H107.537V7.63819H104.126V5.44144ZM100.024 5.44144H103.436V7.63819H100.024V5.44144ZM95.712 5.44144H99.1235V7.63819H95.712V5.44144ZM91.6106 5.44144H95.0221V7.63819H91.6106V5.44144ZM90.729 7.63819H87.3176V5.44144H90.729V7.63819ZM83.2162 5.44144H86.6276V7.63819H83.2162V5.44144ZM79.1723 4.3733H80.8588V6.81189H79.1723V4.3733ZM79.1723 3.60746H80.8588V3.97023H79.1723V3.60746Z" fill="#FCDC9D"/>
<path d="M3.05176e-05 11.7092V12.596H1.41827V13.7851L2.0124 13.1603H4.15892V12.0115C4.15892 12.0115 7.16789 11.9914 10.6368 11.9712V12.9789H8.95027L8.39447 12.3945H7.78118C7.51286 12.1728 7.14872 12.0317 6.76541 12.0317C5.86464 12.0317 5.13636 12.7975 5.13636 13.7448C5.13636 14.692 5.86464 15.4578 6.76541 15.4578C7.45537 15.4578 8.0495 14.9943 8.27948 14.3494H13.7799C14.0099 14.9943 14.6041 15.4578 15.294 15.4578C16.1948 15.4578 16.9231 14.692 16.9231 13.7448C16.9231 13.2006 16.6739 12.6968 16.2906 12.3945V12.2534H16.099C15.869 12.1123 15.5815 12.0317 15.294 12.0317C15.0065 12.0317 14.7382 12.1123 14.4891 12.2534H13.7416L13.1858 12.9991H11.8442C11.8442 12.9991 11.7676 12.4751 11.7293 11.9914C16.2523 11.9712 21.1586 11.9712 21.2161 12.0317C21.3311 12.1526 21.2161 14.7726 21.2161 14.7726H23.8226V12.3743H24.3209V13.5634H28.3456V11.8503L30.6072 12.7371V13.6238H32.1596L32.6579 13.0998H33.8653V12.0922H36.1843V12.8378H35.456V14.692H49.1401V12.8378H48.431V12.1728H49.6384V13.5029H52.0341L52.4557 13.0595L53.0882 13.4223V14.3091H54.2956V13.2006H53.4523L52.8199 12.5355V12.0115H55.5605L56.0971 11.4472H61.2718V12.9588H59.5852L59.0294 12.3743H58.4161C58.1478 12.1526 57.7837 12.0115 57.4004 12.0115C56.4996 12.0115 55.7713 12.7774 55.7713 13.7246C55.7713 14.6718 56.4996 15.4377 57.4004 15.4377C58.0903 15.4377 58.6845 14.9741 58.9144 14.3292H64.3958C64.6257 14.9741 65.2199 15.4377 65.9098 15.4377C66.8106 15.4377 67.5389 14.6718 67.5389 13.7246C67.5389 13.1805 67.2897 12.6766 66.9064 12.3743V12.2332H66.7148C66.4848 12.0922 66.1973 12.0115 65.9098 12.0115C65.6223 12.0115 65.354 12.0922 65.1049 12.2332H64.3574L63.8016 12.9789H62.46C62.46 12.9789 62.3259 11.9712 62.3259 11.4674H68.018L69.2063 12.7169H71.0653V13.8052H71.6211V12.6161H72.4836L72.7519 12.8177H73.116V11.6488H72.7519L72.4836 11.9511H72.4069C72.4069 11.9511 72.4836 10.9232 72.4836 11.0643V3.48654H71.9277V0.886713H63.8975V0.0805664H61.8468V0.886713H59.3744V1.91455H58.5311V0.967328H54.9281V0.0805664H52.8773V0.967328H48.1627V1.85409H46.3228V0.967328H46.112V0.0805664H44.0613V0.967328H37.6409V0.0805664H35.5902V0.967328H28.9589V0.0805664H26.9082V0.967328H20.0662V0.0805664H18.0538V0.967328H11.2118V0.0805664H9.16109V0.967328H1.05413V3.26485H0.766646V11.0442H1.34161V11.7092H3.05176e-05ZM69.0721 4.3733H70.7587V6.81189H69.0721V4.3733ZM69.0721 3.60746H70.7587V3.97023H69.0721V3.60746ZM64.0124 5.38098H66.389V7.85988H64.0124V5.38098ZM58.7228 5.38098H61.0993V7.85988H58.7228V5.38098ZM52.7049 5.44144H56.1163V7.63819H52.7049V5.44144ZM48.6035 5.44144H52.0149V7.63819H48.6035V5.44144ZM44.2913 5.44144H47.7027V7.63819H44.2913V5.44144ZM40.1899 5.44144H43.6013V7.63819H40.1899V5.44144ZM35.9735 5.44144H39.3849V7.63819H35.9735V5.44144ZM31.8721 5.44144H35.2835V7.63819H31.8721V5.44144ZM27.5599 5.44144H30.9713V7.63819H27.5599V5.44144ZM23.4585 5.44144H26.8699V7.63819H23.4585V5.44144ZM19.1463 5.44144H22.5577V7.63819H19.1463V5.44144ZM15.064 5.44144H18.4755V7.63819H15.064V5.44144ZM14.1633 7.63819H10.7518V5.44144H14.1633V7.63819ZM6.65042 5.44144H10.0619V7.63819H6.65042V5.44144ZM2.60652 4.3733H4.29308V6.81189H2.60652V4.3733ZM2.60652 3.60746H4.29308V3.97023H2.60652V3.60746Z" fill="#FCDC9D"/>
<path d="M225.021 11.7899V12.6767L225.213 12.8983L225.481 12.9185L225.73 12.7976H225.998V12.8983H226.267V12.6767H226.171V12.4953H226.727V13.0797H227.34L227.302 13.6037L226.65 13.8053V14.551H227.512L227.992 13.6642H229.87V12.9991C229.946 13.0193 230.004 13.0596 230.081 13.0797C230.33 13.1805 230.598 13.2813 230.732 13.503C230.809 13.644 230.828 13.7851 230.847 13.9665C230.866 14.0874 230.866 14.2083 230.905 14.3293C231.02 14.6316 231.173 14.6517 231.422 14.6517H231.441C231.48 14.6517 231.499 14.6517 231.537 14.6517C231.595 14.6517 231.633 14.6719 231.69 14.6719C231.748 14.6719 231.805 14.6719 231.844 14.6517C231.92 14.6114 232.035 14.5308 232.074 14.43H232.208C232.534 14.8533 233.032 15.1153 233.569 15.1153C234.124 15.1153 234.604 14.8533 234.929 14.43H236.578V14.2486H236.118C236.156 14.2285 236.194 14.1882 236.194 14.1479C236.271 13.9262 236.194 13.5433 236.194 13.3216C236.194 13.1402 236.194 12.9588 236.194 12.7774C236.194 12.7976 236.194 12.8177 236.194 12.858C236.252 12.858 236.29 12.858 236.348 12.858C236.348 13.3014 236.386 13.7247 236.405 14.168C236.578 14.168 236.75 14.0874 236.923 14.1076C236.961 14.2285 237.076 14.43 237.21 14.4703C237.383 14.5308 237.651 14.4905 237.843 14.4703C238.13 14.4502 238.398 14.43 238.686 14.4502C238.897 14.4703 239.127 14.4502 239.337 14.4502C239.357 14.3494 239.357 14.2688 239.357 14.168H240.027V12.8379C240.085 12.8379 240.142 12.8379 240.219 12.8379C240.219 13.0193 240.219 13.2007 240.219 13.382C240.219 13.6037 240.123 13.9866 240.219 14.1882C240.277 14.3494 240.526 14.3494 240.679 14.3293C240.852 14.3091 241.12 14.3293 241.292 14.2486C241.599 14.7928 242.155 15.1556 242.806 15.1556C243.784 15.1556 244.57 14.3293 244.57 13.3014C244.57 13.12 244.55 12.9588 244.493 12.7976C244.57 12.6968 244.646 12.596 244.761 12.5557C244.78 12.8379 244.742 13.12 244.742 13.4022C244.742 13.5634 244.761 13.7448 244.742 13.906C244.819 13.906 244.895 13.8456 244.953 13.8254C244.953 13.9665 244.838 14.5913 245.106 14.4099C245.24 14.3091 245.317 14.0068 245.355 13.8254C245.375 13.6843 245.413 13.5433 245.432 13.4022C245.49 13.3216 245.528 13.2208 245.547 13.12V13.0999C245.624 12.8379 245.72 12.5154 245.72 12.2333C245.72 12.0317 245.624 11.8907 245.528 11.7496C245.528 11.7496 245.528 11.7496 245.528 11.7294C245.605 11.7697 245.7 11.8302 245.739 11.8705C245.873 12.0317 245.911 12.3139 245.854 12.5557C245.815 12.6968 245.777 12.8379 245.72 12.9588C245.643 13.1603 245.566 13.382 245.547 13.644C245.547 13.7045 245.547 13.765 245.528 13.8456C245.528 14.0874 245.509 14.43 245.355 14.551C245.24 14.6316 244.953 14.5913 244.761 14.4703C244.704 14.43 244.627 14.3696 244.627 14.289L244.531 14.2688C244.512 14.3696 244.589 14.4703 244.704 14.5711C244.838 14.6517 245.03 14.7122 245.183 14.7122C245.279 14.7122 245.355 14.692 245.413 14.6517C245.624 14.5106 245.624 14.1277 245.643 13.8657C245.643 13.7851 245.643 13.7247 245.643 13.6843C245.662 13.4425 245.739 13.241 245.815 13.0193C245.854 12.8782 245.911 12.7573 245.95 12.596C246.007 12.334 245.95 12.0116 245.815 11.8302C245.758 11.7697 245.662 11.7093 245.566 11.6488C245.528 11.6287 245.451 11.5884 245.394 11.5481C245.375 11.5279 245.375 11.5077 245.375 11.4674H246.314V14.5106H247.617V14.3897H265.23V11.3062H265.441V14.3494C265.441 14.3494 265.46 12.0519 265.441 11.3062H266.073C266.016 11.3667 265.958 11.4271 265.92 11.5077C266.016 11.5279 266.112 11.5279 266.227 11.5279C266.188 11.5481 266.15 11.5884 266.112 11.6085C266.016 11.669 265.901 11.7093 265.862 11.7899C265.709 11.9914 265.652 12.2937 265.728 12.5557C265.767 12.6968 265.805 12.8379 265.862 12.979C265.939 13.2007 265.997 13.4022 266.035 13.644C266.035 13.7045 266.035 13.765 266.035 13.8254C266.035 14.1076 266.054 14.4703 266.265 14.6114C266.322 14.6517 266.399 14.6719 266.495 14.6719C266.648 14.6719 266.84 14.6114 266.974 14.5308C267.108 14.4502 267.166 14.3494 267.146 14.2285L267.051 14.2486C267.051 14.3293 266.974 14.3897 266.916 14.43C266.725 14.551 266.418 14.5913 266.322 14.5106C266.169 14.3897 266.15 14.0471 266.15 13.8053C266.15 13.7247 266.15 13.6642 266.131 13.6037C266.112 13.3417 266.035 13.12 265.958 12.9185C265.92 12.7976 265.862 12.6565 265.824 12.5154C265.767 12.2937 265.824 12.0116 265.939 11.8302C265.977 11.7899 266.073 11.7294 266.15 11.6891C266.15 11.6891 266.15 11.6891 266.15 11.7093C266.054 11.8504 265.958 11.9914 265.958 12.193C265.958 12.4751 266.054 12.7976 266.131 13.0596V13.0797C266.15 13.1603 266.188 13.2611 266.246 13.3619C266.265 13.503 266.303 13.644 266.322 13.7851C266.361 13.9665 266.418 14.2688 266.572 14.3696C266.821 14.551 266.725 13.9262 266.725 13.7851C266.801 13.8053 266.859 13.8657 266.936 13.8657C266.916 13.7247 266.936 13.5231 266.936 13.3619C266.936 13.0797 266.897 12.7774 266.916 12.5154C267.031 12.5557 267.127 12.6364 267.185 12.7573C267.146 12.9185 267.108 13.0999 267.108 13.2611C267.108 14.289 267.894 15.1153 268.871 15.1153C269.504 15.1153 270.079 14.7525 270.385 14.2083C270.539 14.289 270.826 14.2688 270.999 14.289C271.152 14.3091 271.401 14.3091 271.459 14.1479C271.535 13.9463 271.459 13.5634 271.459 13.3417C271.459 13.1603 271.459 12.979 271.459 12.7976C271.516 12.7976 271.574 12.7976 271.65 12.7976V14.1277H272.321C272.321 14.2285 272.321 14.3091 272.34 14.4099C272.57 14.4099 272.781 14.43 272.992 14.4099C273.279 14.3897 273.567 14.4099 273.835 14.43C274.008 14.4502 274.295 14.4905 274.468 14.43C274.583 14.3897 274.698 14.1882 274.755 14.0673C274.928 14.0471 275.1 14.1076 275.273 14.1277C275.292 13.6843 275.33 13.2611 275.33 12.8177C275.388 12.8177 275.426 12.8177 275.483 12.8177C275.483 12.7976 275.483 12.7774 275.483 12.7371C275.483 12.9185 275.483 13.0999 275.483 13.2813C275.483 13.503 275.388 13.906 275.483 14.1076C275.503 14.1479 275.522 14.1882 275.56 14.2083H275.1V14.3897H276.748C277.074 14.8129 277.572 15.0749 278.109 15.0749C278.646 15.0749 279.144 14.8129 279.47 14.3897H279.604C279.642 14.4905 279.757 14.5711 279.834 14.6114C279.891 14.6316 279.93 14.6316 279.987 14.6316C280.045 14.6316 280.102 14.6316 280.141 14.6114C280.179 14.6114 280.217 14.6114 280.236 14.6114H280.256C280.505 14.5913 280.658 14.5913 280.773 14.289C280.811 14.168 280.831 14.0471 280.831 13.9262C280.85 13.765 280.869 13.6037 280.946 13.4627C281.08 13.241 281.348 13.1402 281.597 13.0394C281.693 12.9991 281.789 12.9588 281.885 12.9185V13.6239H283.763L284.204 14.5106H285.104V14.3091H286.024L286.254 14.4502L286.369 14.289L286.044 14.0874L286.139 14.0471L285.622 12.858H285.699L285.833 12.717H286.101L286.254 12.8782H286.561L286.829 12.596V11.7899L286.638 11.5884H285.66L285.718 11.4876C285.718 11.4876 285.718 11.4473 285.718 11.4271C285.718 11.3667 285.718 11.2861 285.641 11.2256C285.564 11.1651 285.449 11.1651 285.334 11.1651C285.296 11.1651 285.277 11.1651 285.258 11.1651C285.124 11.145 285.009 11.1248 284.874 11.1047V11.0845H284.779C284.702 11.0644 284.625 11.0442 284.549 11.0241V10.7621C284.606 10.7621 284.664 10.7621 284.721 10.7621C284.836 10.7621 284.951 10.7419 284.989 10.7218L284.894 10.5202C284.855 10.5404 284.683 10.5404 284.549 10.5202V10.4598L284.817 10.1776H286.024L286.12 10.0768H286.312V9.93576H285.162V9.63346H285.296V9.71407H285.449V9.19007H285.296V9.311H285.162V6.73133H284.414V9.95591H283.341V9.85515H283.418V4.75627C283.418 4.75627 283.38 4.6555 283.303 4.57488C283.226 4.51442 283.13 4.47412 283.13 4.47412H282.134V4.27258H282.325V4.05089H282.057V4.11135H281.559V4.23227H281.655V4.37335H279.336V4.1315H277.917V4.35319H276.403V2.64013H277.707V2.49906H277.802V2.43859H278.032V1.16891H277.802V1.10845H277.687V0.947223H277.227V0.826301H277.132V0.705379C277.132 0.705379 277.572 0.685225 278.167 0.745686C278.761 0.806147 278.857 1.06814 278.857 1.06814C278.857 1.06814 278.857 0.423227 278.857 0.241844C278.857 0.22169 278.837 0.201537 278.818 0.22169C278.703 0.302305 278.358 0.503842 278.186 0.544149C278.052 0.564303 277.687 0.564303 277.687 0.564303H277.266C277.266 0.564303 277.323 0.483688 277.323 0.403073C277.323 0.322459 277.247 0.261998 277.247 0.261998L277.189 0.241844L277.151 0.302305H276.882L276.825 0.362766C276.825 0.362766 276.557 0.362766 276.518 0.362766C276.461 0.362766 276.308 0.322459 276.25 0.302305C276.193 0.282151 276.135 0.181383 276.135 0.181383V0.705379C276.135 0.705379 276.193 0.624764 276.269 0.564303C276.346 0.503842 276.538 0.503842 276.538 0.503842H276.729V0.584457V0.745686L276.806 0.826301V0.927069H272.551V0.826301H272.494V0.644917H272.551V0.0201537H272.283V0.665071H272.417V0.806147H272.321V0.927069H269.676H269.427V0.866608H269.504V0.745686H268.814L268.373 0.322459H265.632V0.241844H264.617V0.342612H262.93V0.76584H262.758V0.906915H262.585V0.745686H261.665L261.531 0.38292H261.32V0.282151H260.343V0.403073H260.113L259.979 0.745686H259.269V0.846454H259.346V0.947223H255.724V0.886762H254.459V0.261998H253.462L253.386 0.181383H251.45L251.373 0.261998H250.358V0.846454H249.112L249.054 0.906915H245.892C245.892 0.906915 245.624 0.866608 245.624 0.906915H245.49V0.826301H244.34V0.503842H244.435V0.362766H244.359V0.060461H243.324L243.266 0H241.331L241.254 0.0806147H240.238V0.38292H240.162V0.523995H240.219V0.826301H239.625V0.523995H239.721V0.362766H239.625V0.0806147H238.609L238.552 0.0201537H236.597L236.539 0.0806147H235.504V0.38292H235.428V0.523995H235.524V0.826301H234.891V0.544149H234.987V0.362766H234.891V0.0806147H233.914L233.837 0H231.863L231.825 0.060461H230.751V0.806147H229.276V0.927069H229.141V0.725532H229.237V0.665071H228.777V0.60461H228.509V0.806147H228.662V1.00768C228.662 1.00768 228.605 0.967376 228.528 1.00768C228.432 1.04799 228.394 1.16891 228.394 1.16891V1.93475H227.608L227.551 1.99521V2.05567H227.359V3.32536H227.551L227.589 3.36566H228.164V3.22459H228.375V9.85515H228.432V9.93576H227.589V9.83499H227.493V9.73422H227.378V6.65071H226.554V9.27069H226.42V9.19007H226.324V9.73422H226.42V9.6133H226.554V9.97607H225.5L225.519 10.097H225.692L225.807 10.2179H227.263V11.0845H226.957V11.2659H227.129V11.2054H227.263L227.244 11.3062L227.033 11.4271L226.937 11.5481H226.65V11.8101L226.688 11.8504V11.931H226.094L225.826 11.6488H225.117L225.021 11.7899ZM227.148 9.06915H226.765V6.8724H227.148V9.06915ZM284.759 9.79468H285.085V9.95591H284.759V9.79468ZM284.759 6.95302H285.085V9.12961H284.759V6.95302ZM285.718 12.7774L285.603 12.4953H285.718V12.7774ZM285.028 13.7448L285.143 13.0394V12.5154H285.373L286.063 14.0874H285.239V13.7247H285.028V13.7448ZM284.664 11.2457H284.74C284.951 11.3062 285.162 11.3465 285.373 11.3868C285.411 11.3868 285.449 11.3868 285.488 11.3868C285.545 11.3868 285.641 11.3868 285.66 11.407C285.66 11.407 285.66 11.4271 285.66 11.4473C285.66 11.5077 285.679 11.5884 285.718 11.6488L285.641 11.7093V11.9511H285.143V11.7697H285.258V11.5884H284.913L284.664 11.3264V11.2457ZM279.834 14.43H280.505V14.3696C280.677 14.2688 280.754 13.9665 280.792 13.7851C280.869 13.4828 280.926 13.1805 280.965 12.8782C281.022 12.5154 281.08 11.8705 280.581 11.8907C280.486 11.8907 280.409 11.9108 280.313 11.9511C280.217 11.9914 280.16 12.1124 280.064 12.1325C279.93 12.1728 279.719 12.1124 279.527 12.0317C279.431 11.931 279.336 11.8302 279.24 11.7496C279.201 11.6891 279.182 11.6287 279.144 11.5884C279.086 11.5481 278.991 11.5481 278.914 11.5481C278.703 11.4473 278.454 11.3868 278.205 11.3868C278.186 11.3868 278.147 11.3868 278.128 11.3868C278.052 11.3868 277.975 11.3868 277.898 11.3868C277.745 11.3868 277.572 11.3465 277.419 11.3667C277.266 11.407 277.208 11.5481 277.055 11.6085C276.882 11.669 276.787 11.6287 276.633 11.5682C276.614 11.4876 276.633 11.3868 276.633 11.2861H281.156L282.019 12.193V12.7976C281.923 12.858 281.808 12.8983 281.693 12.9387C281.425 13.0394 281.156 13.1402 280.984 13.4022C280.888 13.5634 280.869 13.7448 280.85 13.906C280.831 14.027 280.831 14.1479 280.792 14.2486C280.716 14.4905 280.62 14.4905 280.371 14.5106H280.351C280.313 14.5106 280.275 14.5106 280.236 14.5308C280.141 14.551 280.045 14.551 279.968 14.5308C279.93 14.5106 279.853 14.4703 279.834 14.43ZM279.719 14.2285C279.891 13.9463 279.987 13.6037 279.987 13.241C279.987 13.0193 279.949 12.7976 279.872 12.596C279.93 12.5557 280.006 12.5154 280.083 12.4751C280.102 12.7573 280.064 13.0394 280.064 13.3216C280.064 13.4828 280.083 13.6642 280.064 13.8254C280.16 13.8254 280.256 13.765 280.332 13.7448C280.332 13.8254 280.294 14.0471 280.313 14.1882H279.719V14.2285ZM279.029 14.2285C279.067 14.2083 279.106 14.1882 279.125 14.168C279.336 13.9665 279.393 13.503 279.489 13.2208C279.546 13.0596 279.604 12.9185 279.7 12.7976C279.738 12.9387 279.757 13.0999 279.757 13.2611C279.757 13.6239 279.642 13.9665 279.451 14.2486H279.029V14.2285ZM277.132 14.43H279.297C279.01 14.7122 278.646 14.8936 278.224 14.8936C277.802 14.8734 277.419 14.7122 277.132 14.43ZM276.672 13.241C276.672 13.1805 276.672 13.0999 276.691 13.0394C276.844 13.1805 276.902 13.382 276.978 13.5836C277.036 13.7045 277.093 14.0673 277.189 14.1277C277.247 14.1882 277.419 14.168 277.515 14.168C277.707 14.168 277.898 14.2083 278.09 14.2285H276.997C276.787 13.9463 276.672 13.6239 276.672 13.241ZM276.518 14.2285C276.576 14.2083 276.614 14.2083 276.672 14.168C276.614 14.0471 276.576 13.9262 276.538 13.7851C276.576 13.9463 276.653 14.0874 276.729 14.2083H276.518V14.2285ZM276.423 12.7976H276.461C276.442 12.8177 276.442 12.858 276.442 12.8983C276.461 12.8983 276.48 12.9185 276.499 12.9185C276.48 13.0193 276.461 13.1402 276.461 13.241C276.461 13.4425 276.48 13.6239 276.538 13.7851C276.499 13.6843 276.48 13.5634 276.442 13.4425C276.403 13.2611 276.384 12.9991 276.423 12.7976ZM274.736 5.13919H273.414V3.20443H274.736V5.13919ZM275.503 4.9175H274.985V3.3052H275.503V4.9175ZM274.41 11.3062H275.426C275.407 11.4876 275.407 11.6488 275.407 11.8101C275.292 11.7899 275.158 11.669 275.043 11.6287C274.908 11.5884 274.774 11.6085 274.64 11.5884C274.487 11.5682 274.429 11.4473 274.41 11.3062ZM272.302 5.54226H274.333V7.21501H272.302V5.54226ZM271.823 3.20443H273.145V5.13919H271.823V3.20443ZM270.75 11.3062H271.574C271.555 11.4473 271.516 11.5682 271.401 11.5884C271.305 11.6085 271.19 11.5884 271.075 11.6287C270.98 11.669 270.884 11.7697 270.769 11.8101C270.769 11.6488 270.769 11.4876 270.75 11.3062ZM267.396 13.241C267.396 13.1805 267.396 13.12 267.396 13.0596C267.415 13.0999 267.434 13.1603 267.434 13.2007C267.511 13.4828 267.568 13.9463 267.741 14.1479C267.875 14.3091 268.143 14.2486 268.316 14.2486C268.565 14.2285 268.814 14.1882 269.063 14.168C269.14 14.168 269.274 14.1882 269.331 14.1277C269.408 14.0471 269.465 13.7045 269.504 13.5836C269.561 13.382 269.619 13.1402 269.753 13.0193C269.906 12.8782 270.175 12.7976 270.366 12.8177C270.385 12.8177 270.424 12.8177 270.443 12.8177C270.481 12.9588 270.5 13.0999 270.5 13.2611C270.5 14.168 269.81 14.8936 268.948 14.8936C268.105 14.8734 267.396 14.1479 267.396 13.241ZM266.457 11.5682C266.476 11.5481 266.476 11.5481 266.495 11.5279C266.648 11.5279 266.782 11.5077 266.916 11.5077C266.916 11.4473 266.916 11.3868 266.897 11.3264H269.772C269.772 11.4271 269.791 11.5077 269.772 11.6085C269.772 11.6085 269.772 11.6085 269.753 11.6085C269.58 11.5077 269.37 11.4473 269.159 11.4271C269.14 11.4271 269.14 11.407 269.12 11.407C269.005 11.3667 268.852 11.407 268.737 11.4271C268.622 11.4271 268.507 11.3667 268.45 11.4876C268.392 11.5077 268.316 11.5279 268.258 11.5682C268.162 11.5682 268.066 11.5682 267.971 11.5884C267.894 11.5884 267.779 11.5682 267.721 11.6287C267.664 11.6891 267.626 11.8504 267.568 11.931C267.453 12.072 267.127 12.2333 266.974 12.1728C266.897 12.1325 266.84 12.0317 266.763 11.9914C266.706 11.9511 266.629 11.931 266.552 11.931C266.15 11.9108 266.188 12.5557 266.246 12.9185V12.9387C266.188 12.717 266.112 12.455 266.112 12.2333C266.112 12.072 266.207 11.9511 266.284 11.8302C266.361 11.7093 266.418 11.6488 266.457 11.5682ZM263.026 0.927069H268.143V3.14397H263.026V0.927069ZM246.601 14.0673H246.984V14.289H246.601V14.0673ZM246.601 11.4271H246.984V13.8456H246.601V11.4271ZM244.244 11.8907C244.186 11.8101 244.148 11.6488 244.09 11.5884C244.033 11.5279 243.918 11.5481 243.841 11.5481C243.746 11.5481 243.65 11.5481 243.554 11.5279C243.496 11.5077 243.42 11.4674 243.362 11.4473C243.305 11.3264 243.19 11.3868 243.075 11.3868C242.96 11.3868 242.806 11.3465 242.691 11.3667C242.672 11.3667 242.672 11.3868 242.653 11.3868C242.442 11.407 242.251 11.4876 242.059 11.5682C242.059 11.5682 242.059 11.5682 242.04 11.5682C242.021 11.4674 242.04 11.3667 242.04 11.2659H243.995V11.407H245.317H245.298C245.279 11.4674 245.317 11.5077 245.355 11.5481C245.394 11.6287 245.432 11.6891 245.49 11.7697C245.585 11.8907 245.662 12.0116 245.662 12.1728C245.662 12.3945 245.605 12.6565 245.528 12.8782V12.858C245.566 12.4953 245.605 11.8504 245.221 11.8705C245.145 11.8705 245.068 11.8907 245.01 11.931C244.934 11.9713 244.876 12.0922 244.8 12.1124C244.685 12.193 244.359 12.0317 244.244 11.8907ZM241.331 13.241C241.331 13.0999 241.35 12.9387 241.388 12.7976C241.407 12.7976 241.446 12.7976 241.465 12.7976C241.656 12.7774 241.925 12.858 242.078 12.9991C242.212 13.1402 242.27 13.3619 242.327 13.5634C242.366 13.6843 242.423 14.0471 242.5 14.1076C242.557 14.168 242.691 14.1479 242.768 14.1479C243.017 14.168 243.266 14.2285 243.516 14.2285C243.688 14.2285 243.956 14.289 244.09 14.1277C244.263 13.9262 244.301 13.4627 244.397 13.1805C244.416 13.12 244.435 13.0797 244.435 13.0394C244.435 13.0999 244.435 13.1603 244.435 13.2208C244.435 14.1277 243.746 14.8533 242.883 14.8533C242.021 14.8734 241.331 14.1479 241.331 13.241ZM240.257 11.2861H241.082C241.062 11.4674 241.062 11.6488 241.062 11.8101C240.967 11.7899 240.871 11.669 240.756 11.6287C240.66 11.5884 240.545 11.6085 240.43 11.5884C240.315 11.5682 240.277 11.4271 240.257 11.2861ZM236.424 11.2861H237.44C237.421 11.4271 237.363 11.5682 237.21 11.6085C237.076 11.6287 236.942 11.6085 236.808 11.6488C236.673 11.6891 236.558 11.7899 236.443 11.8302C236.443 11.6488 236.424 11.4674 236.424 11.2861ZM235.409 13.4425C235.389 13.5634 235.351 13.6843 235.313 13.7851C235.37 13.6037 235.389 13.4223 235.389 13.241C235.389 13.12 235.37 13.0193 235.351 12.9185C235.37 12.9185 235.389 12.8983 235.409 12.8983C235.409 12.858 235.389 12.8379 235.389 12.7976H235.428C235.466 12.9991 235.447 13.2611 235.409 13.4425ZM235.121 14.2285C235.198 14.0874 235.274 13.9463 235.313 13.8053C235.274 13.9262 235.236 14.0471 235.179 14.1882C235.217 14.2083 235.274 14.2285 235.332 14.2486H235.121V14.2285ZM233.78 14.2285C233.971 14.2083 234.163 14.1882 234.354 14.168C234.45 14.168 234.604 14.1882 234.68 14.1277C234.776 14.0471 234.834 13.7045 234.891 13.5836C234.968 13.4022 235.025 13.1805 235.179 13.0394C235.179 13.0999 235.198 13.1805 235.198 13.241C235.198 13.6037 235.083 13.9463 234.891 14.2285H233.78ZM232.534 14.43H234.699C234.412 14.7122 234.048 14.8936 233.626 14.8936C233.205 14.8734 232.821 14.7122 232.534 14.43ZM232.074 13.241C232.074 13.0797 232.093 12.9387 232.131 12.7774C232.208 12.8983 232.285 13.0394 232.342 13.2007C232.438 13.4828 232.515 13.9463 232.706 14.1479C232.745 14.168 232.764 14.1882 232.802 14.2083H232.38C232.189 13.9463 232.074 13.6239 232.074 13.241ZM231.537 14.2285C231.556 14.0673 231.518 13.8456 231.518 13.7851C231.595 13.8053 231.69 13.8657 231.786 13.8657C231.748 13.7247 231.786 13.5231 231.786 13.3619C231.786 13.0797 231.748 12.7774 231.767 12.5154C231.844 12.5356 231.92 12.5759 231.978 12.6364C231.901 12.8379 231.863 13.0394 231.863 13.2813C231.863 13.644 231.959 13.9866 232.131 14.2688H231.537V14.2285ZM229.908 12.2131L230.713 11.2861H235.198C235.198 11.3868 235.217 11.4876 235.198 11.5884C235.044 11.6287 234.949 11.6891 234.776 11.6287C234.623 11.5682 234.565 11.4271 234.412 11.3868C234.259 11.3465 234.086 11.3868 233.933 11.407C233.856 11.407 233.76 11.3868 233.703 11.407C233.684 11.407 233.645 11.407 233.626 11.407C233.377 11.407 233.128 11.4674 232.917 11.5682C232.84 11.5682 232.745 11.5682 232.687 11.6085C232.649 11.6488 232.61 11.7093 232.591 11.7697C232.476 11.8504 232.38 11.9511 232.304 12.0519C232.131 12.1325 231.901 12.193 231.767 12.1527C231.671 12.1124 231.595 12.0116 231.518 11.9713C231.441 11.931 231.345 11.9108 231.25 11.9108C230.751 11.8907 230.809 12.5356 230.866 12.8983C230.905 13.2007 230.981 13.5231 231.039 13.8053C231.077 13.9866 231.173 14.289 231.326 14.3897V14.4502H231.997C231.959 14.4905 231.901 14.551 231.863 14.5711C231.786 14.6114 231.69 14.5913 231.595 14.5711C231.556 14.5711 231.518 14.5711 231.48 14.551H231.46C231.211 14.5308 231.135 14.5308 231.039 14.289C231.001 14.1882 230.981 14.0673 230.981 13.9463C230.962 13.7851 230.943 13.6037 230.847 13.4425C230.694 13.1805 230.406 13.0797 230.138 12.979C230.061 12.9387 229.966 12.9185 229.889 12.8782V12.2131H229.908Z" fill="#FCDC9D"/>
</svg>
